<?xml version="1.0" encoding="UTF-8" standalone="no"?>
<!DOCTYPE svg PUBLIC "-//W3C//DTD SVG 1.1//EN" "http://www.w3.org/Graphics/SVG/1.1/DTD/svg11.dtd">
<svg version="1.1" xmlns="http://www.w3.org/2000/svg" xmlns:xlink="http://www.w3.org/1999/xlink" preserveAspectRatio="xMidYMid meet" viewBox="0 0 640 640" width="640" height="640"><defs><path d="M541.98 169.42L542.73 169.5L543.48 169.6L544.22 169.74L544.94 169.9L545.66 170.09L546.37 170.31L547.06 170.55L547.74 170.82L548.41 171.12L549.06 171.44L549.7 171.78L550.32 172.15L550.93 172.54L551.52 172.96L552.09 173.39L552.65 173.85L553.19 174.33L553.71 174.83L554.21 175.34L554.69 175.88L555.15 176.44L555.59 177.01L556 177.6L556.4 178.2L556.77 178.82L557.12 179.46L557.44 180.11L557.74 180.78L558.01 181.46L558.26 182.15L558.48 182.85L558.67 183.57L558.84 184.3L558.97 185.03L559.08 185.78L559.16 186.54L559.21 187.3L559.23 188.07L559.23 188.18L559.23 188.29L559.22 188.39L559.22 188.5L559.22 188.61L559.22 188.72L559.21 188.82L559.21 188.93L559.2 189.04L559.2 189.14L559.19 189.25L559.19 189.36L559.18 189.46L559.17 189.57L559.16 189.68L559.15 189.78L559.14 189.89L559.13 189.99L559.12 190.1L559.11 190.21L559.1 190.31L559.08 190.42L559.07 190.52L559.06 190.63L559.04 190.74L559.03 190.84L559.01 190.95L558.99 191.05L558.98 191.16L558.96 191.26L558.94 191.37L558.92 191.47L558.9 191.58L558.88 191.68L558.86 191.79L558.84 191.89L558.82 192L558.8 192.1L558.77 192.21L558.75 192.31L515.5 380.41L515.34 381.05L515.17 381.67L514.97 382.29L514.75 382.89L514.52 383.49L514.26 384.07L513.99 384.64L513.69 385.21L513.38 385.75L513.06 386.29L512.71 386.81L512.35 387.32L511.97 387.82L511.58 388.31L511.17 388.78L510.75 389.23L510.31 389.67L509.86 390.1L509.39 390.51L508.92 390.9L508.42 391.28L507.92 391.65L507.4 391.99L506.88 392.32L506.34 392.63L505.79 392.93L505.23 393.2L504.66 393.46L504.09 393.7L503.5 393.92L502.9 394.12L502.3 394.3L501.69 394.46L501.07 394.6L500.44 394.72L499.81 394.82L499.17 394.9L498.53 394.95L497.88 394.99L497.23 395L240.81 395L240.16 394.99L239.51 394.96L238.86 394.9L238.22 394.83L237.59 394.73L236.96 394.61L236.34 394.47L235.73 394.31L235.12 394.13L234.53 393.93L233.94 393.71L233.36 393.47L232.79 393.21L232.23 392.94L231.68 392.64L231.14 392.33L230.61 392L230.1 391.66L229.59 391.29L229.1 390.92L228.62 390.52L228.15 390.11L227.7 389.68L227.26 389.24L226.84 388.79L226.43 388.32L226.04 387.83L225.66 387.33L225.3 386.82L224.95 386.3L224.62 385.76L224.31 385.21L224.02 384.65L223.74 384.08L223.49 383.49L223.25 382.9L223.03 382.29L222.83 381.68L222.66 381.05L222.5 380.41L179.33 192.31L179.17 191.56L179.04 190.8L178.95 190.05L178.88 189.29L178.85 188.54L178.85 187.8L178.87 187.06L178.93 186.32L179.01 185.59L179.13 184.87L179.27 184.15L179.43 183.45L179.63 182.75L179.85 182.06L180.1 181.38L180.37 180.71L180.67 180.05L180.99 179.41L181.34 178.78L181.71 178.16L182.1 177.56L182.52 176.97L182.96 176.4L183.42 175.85L183.9 175.31L184.4 174.79L184.93 174.29L185.47 173.81L186.03 173.35L186.62 172.91L187.22 172.49L187.84 172.1L188.47 171.73L189.13 171.38L189.8 171.06L190.49 170.76L191.19 170.49L191.91 170.24L192.65 170.03L193.4 169.84L193.5 169.82L193.61 169.79L193.71 169.77L193.81 169.75L193.92 169.73L194.02 169.71L194.12 169.69L194.23 169.67L194.33 169.65L194.44 169.63L194.54 169.61L194.65 169.6L194.75 169.58L194.86 169.56L194.96 169.55L195.07 169.53L195.17 169.52L195.28 169.51L195.38 169.49L195.49 169.48L195.59 169.47L195.7 169.46L195.8 169.45L195.91 169.44L196.01 169.43L196.12 169.42L196.22 169.41L196.33 169.41L196.44 169.4L196.54 169.39L196.65 169.39L196.75 169.38L196.86 169.38L196.96 169.37L197.07 169.37L197.18 169.37L197.28 169.37L197.39 169.36L197.49 169.36L197.6 169.36L540.44 169.36L541.21 169.38L541.98 169.42ZM255.74 357.5L482.3 357.5L516.89 206.9L221.14 206.9L255.74 357.5Z" id="a35avmHOx1"></path><path d="M283.39 419.04L286.29 419.33L289.15 419.74L291.98 420.26L294.77 420.89L297.51 421.62L300.21 422.46L302.86 423.4L305.47 424.45L308.02 425.59L310.52 426.82L312.96 428.15L315.35 429.56L317.67 431.07L319.93 432.66L322.13 434.34L324.26 436.1L326.32 437.93L328.31 439.84L330.22 441.83L332.05 443.89L333.81 446.02L335.49 448.22L337.08 450.48L338.59 452.8L340 455.19L341.33 457.63L342.56 460.13L343.7 462.68L344.75 465.29L345.69 467.94L346.53 470.64L347.26 473.38L347.89 476.17L348.41 479L348.82 481.86L349.11 484.76L349.29 487.69L349.35 490.65L349.29 493.61L349.11 496.54L348.81 499.44L348.4 502.3L347.88 505.12L347.25 507.91L346.51 510.65L345.67 513.35L344.73 516L343.68 518.6L342.54 521.16L341.31 523.65L339.98 526.1L338.56 528.48L337.06 530.8L335.46 533.06L333.79 535.26L332.03 537.39L330.2 539.45L328.28 541.43L326.3 543.35L324.24 545.18L322.11 546.94L319.91 548.61L317.65 550.21L315.33 551.71L312.95 553.13L310.5 554.46L308.01 555.69L305.45 556.83L302.85 557.88L300.2 558.82L297.5 559.66L294.76 560.4L291.97 561.03L289.15 561.55L286.29 561.96L283.39 562.26L280.46 562.44L277.5 562.5L274.54 562.44L271.61 562.26L268.71 561.97L265.85 561.56L263.02 561.04L260.23 560.41L257.49 559.68L254.79 558.84L252.14 557.9L249.53 556.85L246.98 555.71L244.48 554.48L242.04 553.15L239.65 551.74L237.33 550.23L235.07 548.64L232.87 546.96L230.74 545.2L228.68 543.37L226.69 541.46L224.78 539.47L222.95 537.41L221.19 535.28L219.51 533.08L217.92 530.82L216.41 528.5L215 526.11L213.67 523.67L212.44 521.17L211.3 518.62L210.25 516.01L209.31 513.36L208.47 510.66L207.74 507.92L207.11 505.13L206.59 502.3L206.18 499.44L205.89 496.54L205.71 493.61L205.65 490.65L205.71 487.69L205.89 484.76L206.18 481.86L206.59 479L207.11 476.17L207.74 473.38L208.47 470.64L209.31 467.94L210.25 465.29L211.3 462.68L212.44 460.13L213.67 457.63L215 455.19L216.41 452.8L217.92 450.48L219.51 448.22L221.19 446.02L222.95 443.89L224.78 441.83L226.69 439.84L228.68 437.93L230.74 436.1L232.87 434.34L235.07 432.66L237.33 431.07L239.65 429.56L242.04 428.15L244.48 426.82L246.98 425.59L249.53 424.45L252.14 423.4L254.79 422.46L257.49 421.62L260.23 420.89L263.02 420.26L265.85 419.74L268.71 419.33L271.61 419.04L274.54 418.86L277.5 418.8L280.46 418.86L283.39 419.04ZM274.68 456.43L273.3 456.57L271.93 456.76L270.58 457.01L269.25 457.31L267.93 457.66L266.64 458.06L265.37 458.51L264.13 459.01L262.91 459.56L261.71 460.15L260.55 460.78L259.41 461.46L258.29 462.18L257.21 462.94L256.16 463.74L255.15 464.58L254.16 465.46L253.21 466.37L252.3 467.32L251.42 468.31L250.58 469.33L249.78 470.38L249.02 471.46L248.3 472.57L247.62 473.71L246.98 474.88L246.39 476.07L245.85 477.29L245.35 478.54L244.9 479.81L244.5 481.1L244.15 482.41L243.85 483.74L243.6 485.09L243.4 486.46L243.26 487.85L243.18 489.25L243.15 490.66L243.18 492.08L243.26 493.48L243.4 494.87L243.6 496.23L243.85 497.59L244.15 498.92L244.5 500.23L244.9 501.52L245.35 502.79L245.85 504.03L246.39 505.25L246.98 506.45L247.62 507.62L248.3 508.76L249.02 509.87L249.78 510.95L250.58 512L251.42 513.02L252.3 514L253.21 514.95L254.16 515.87L255.15 516.74L256.16 517.58L257.21 518.38L258.29 519.15L259.41 519.87L260.55 520.54L261.71 521.18L262.91 521.77L264.13 522.31L265.37 522.81L266.64 523.26L267.93 523.66L269.25 524.01L270.58 524.31L271.93 524.56L273.3 524.76L274.68 524.9L276.08 524.98L277.5 525.01L278.92 524.98L280.32 524.9L281.7 524.76L283.07 524.56L284.42 524.31L285.75 524.01L287.07 523.66L288.36 523.26L289.63 522.81L290.87 522.31L292.09 521.77L293.29 521.18L294.45 520.54L295.59 519.87L296.71 519.15L297.79 518.38L298.84 517.58L299.85 516.74L300.84 515.87L301.79 514.95L302.7 514L303.58 513.02L304.42 512L305.22 510.95L305.98 509.87L306.7 508.76L307.38 507.62L308.02 506.45L308.61 505.25L309.15 504.03L309.65 502.79L310.1 501.52L310.5 500.23L310.85 498.92L311.15 497.59L311.4 496.23L311.6 494.87L311.74 493.48L311.82 492.08L311.85 490.66L311.85 490.65L311.82 489.23L311.73 487.83L311.59 486.45L311.4 485.08L311.15 483.73L310.84 482.4L310.49 481.09L310.09 479.8L309.64 478.53L309.14 477.29L308.6 476.07L308 474.87L307.37 473.71L306.69 472.57L305.97 471.46L305.21 470.38L304.41 469.33L303.57 468.31L302.69 467.33L301.78 466.38L300.83 465.46L299.84 464.59L298.83 463.75L297.78 462.94L296.7 462.18L295.58 461.46L294.44 460.79L293.28 460.15L292.08 459.56L290.86 459.02L289.62 458.52L288.35 458.07L287.06 457.67L285.75 457.32L284.42 457.01L283.07 456.77L281.7 456.57L280.32 456.43L278.92 456.34L277.5 456.31L276.08 456.34L274.68 456.43Z" id="fHkeuSbXc"></path><path d="M466.42 419.04L469.32 419.33L472.18 419.74L475.01 420.26L477.79 420.89L480.54 421.62L483.24 422.46L485.89 423.4L488.49 424.45L491.05 425.59L493.54 426.82L495.99 428.15L498.37 429.56L500.7 431.07L502.96 432.66L505.16 434.34L507.28 436.1L509.34 437.93L511.33 439.84L513.24 441.83L515.08 443.89L516.84 446.02L518.51 448.22L520.1 450.48L521.61 452.8L523.03 455.19L524.36 457.63L525.59 460.13L526.73 462.68L527.77 465.29L528.71 467.94L529.55 470.64L530.29 473.38L530.92 476.17L531.43 479L531.84 481.86L532.14 484.76L532.32 487.69L532.38 490.65L532.31 493.61L532.13 496.54L531.83 499.44L531.42 502.3L530.9 505.12L530.27 507.91L529.54 510.65L528.69 513.35L527.75 516L526.71 518.6L525.57 521.16L524.33 523.65L523.01 526.1L521.59 528.48L520.08 530.8L518.49 533.06L516.81 535.26L515.06 537.39L513.22 539.45L511.31 541.43L509.32 543.35L507.26 545.18L505.14 546.94L502.94 548.61L500.68 550.21L498.36 551.71L495.97 553.13L493.53 554.46L491.03 555.69L488.48 556.83L485.88 557.88L483.22 558.82L480.53 559.66L477.78 560.4L475 561.03L472.17 561.55L469.31 561.96L466.42 562.26L463.49 562.44L460.53 562.5L457.56 562.44L454.63 562.26L451.73 561.97L448.87 561.56L446.04 561.04L443.26 560.41L440.51 559.68L437.81 558.84L435.16 557.9L432.56 556.85L430 555.71L427.51 554.48L425.06 553.15L422.68 551.74L420.35 550.23L418.09 548.64L415.89 546.96L413.77 545.2L411.71 543.37L409.72 541.46L407.81 539.47L405.97 537.41L404.21 535.28L402.54 533.08L400.95 530.82L399.44 528.5L398.02 526.11L396.69 523.67L395.46 521.17L394.32 518.62L393.28 516.01L392.34 513.36L391.5 510.66L390.76 507.92L390.13 505.13L389.62 502.3L389.21 499.44L388.91 496.54L388.73 493.61L388.68 490.65L388.73 487.69L388.91 484.76L389.21 481.86L389.62 479L390.13 476.17L390.76 473.38L391.5 470.64L392.34 467.94L393.28 465.29L394.32 462.68L395.46 460.13L396.69 457.63L398.02 455.19L399.44 452.8L400.95 450.48L402.54 448.22L404.21 446.02L405.97 443.89L407.81 441.83L409.72 439.84L411.71 437.93L413.77 436.1L415.89 434.34L418.09 432.66L420.35 431.07L422.68 429.56L425.06 428.15L427.51 426.82L430 425.59L432.56 424.45L435.16 423.4L437.81 422.46L440.51 421.62L443.26 420.89L446.04 420.26L448.87 419.74L451.73 419.33L454.63 419.04L457.56 418.86L460.53 418.8L463.49 418.86L466.42 419.04ZM457.71 456.43L456.32 456.57L454.95 456.76L453.6 457.01L452.27 457.31L450.96 457.66L449.67 458.06L448.4 458.51L447.15 459.01L445.93 459.56L444.74 460.15L443.57 460.78L442.43 461.46L441.32 462.18L440.24 462.94L439.19 463.74L438.17 464.58L437.19 465.46L436.24 466.37L435.32 467.32L434.44 468.31L433.6 469.33L432.8 470.38L432.04 471.46L431.32 472.57L430.64 473.71L430.01 474.88L429.42 476.07L428.87 477.29L428.38 478.54L427.93 479.81L427.52 481.1L427.17 482.41L426.87 483.74L426.62 485.09L426.43 486.46L426.29 487.85L426.2 489.25L426.18 490.66L426.2 492.08L426.29 493.48L426.43 494.87L426.62 496.23L426.87 497.59L427.17 498.92L427.52 500.23L427.93 501.52L428.38 502.79L428.87 504.03L429.42 505.25L430.01 506.45L430.64 507.62L431.32 508.76L432.04 509.87L432.8 510.95L433.6 512L434.44 513.02L435.32 514L436.24 514.95L437.19 515.87L438.17 516.74L439.19 517.58L440.24 518.38L441.32 519.15L442.43 519.87L443.57 520.54L444.74 521.18L445.93 521.77L447.15 522.31L448.4 522.81L449.67 523.26L450.96 523.66L452.27 524.01L453.6 524.31L454.95 524.56L456.32 524.76L457.71 524.9L459.11 524.98L460.53 525.01L461.94 524.98L463.34 524.9L464.73 524.76L466.1 524.56L467.45 524.31L468.78 524.01L470.09 523.66L471.38 523.26L472.65 522.81L473.9 522.31L475.12 521.77L476.31 521.18L477.48 520.54L478.62 519.87L479.73 519.15L480.81 518.38L481.86 517.58L482.88 516.74L483.86 515.87L484.81 514.95L485.73 514L486.61 513.02L487.45 512L488.25 510.95L489.01 509.87L489.73 508.76L490.41 507.62L491.04 506.45L491.63 505.25L492.18 504.03L492.67 502.79L493.12 501.52L493.53 500.23L493.88 498.92L494.18 497.59L494.43 496.23L494.62 494.87L494.76 493.48L494.85 492.08L494.88 490.66L494.88 490.65L494.84 489.23L494.76 487.83L494.62 486.45L494.42 485.08L494.17 483.73L493.87 482.4L493.52 481.09L493.11 479.8L492.66 478.53L492.17 477.29L491.62 476.07L491.03 474.87L490.39 473.71L489.72 472.57L489 471.46L488.24 470.38L487.43 469.33L486.59 468.31L485.72 467.33L484.8 466.38L483.85 465.46L482.87 464.59L481.85 463.75L480.8 462.94L479.72 462.18L478.61 461.46L477.47 460.79L476.3 460.15L475.11 459.56L473.89 459.02L472.64 458.52L471.38 458.07L470.09 457.67L468.78 457.32L467.44 457.01L466.09 456.77L464.73 456.57L463.34 456.43L461.94 456.34L460.53 456.31L459.11 456.34L457.71 456.43Z" id="a1V4hPFFym"></path><path d="M179.81 194.04C177.67 187.6 166.96 155.42 147.68 97.5C112.1 97.5 92.33 97.5 88.38 97.5C78.02 97.5 69.63 89.11 69.63 78.75C69.63 68.39 78.02 60 88.38 60C95.66 60 153.96 60 161.25 60C169.32 60 176.49 65.17 179.04 72.82C182.68 83.76 211.81 171.25 215.45 182.19C218.72 192.01 213.41 202.63 203.59 205.9C201.68 206.54 199.68 206.86 197.66 206.86C189.53 206.86 182.36 201.7 179.81 194.04Z" id="e4sBOmRlTf"></path></defs><g><g><g><use xlink:href="#a35avmHOx1" opacity="1" fill="#ffffff" fill-opacity="1"></use><g><use xlink:href="#a35avmHOx1" opacity="1" fill-opacity="0" stroke="#000000" stroke-width="1" stroke-opacity="0"></use></g></g><g><use xlink:href="#fHkeuSbXc" opacity="1" fill="#ffffff" fill-opacity="1"></use><g><use xlink:href="#fHkeuSbXc" opacity="1" fill-opacity="0" stroke="#000000" stroke-width="1" stroke-opacity="0"></use></g></g><g><use xlink:href="#a1V4hPFFym" opacity="1" fill="#ffffff" fill-opacity="1"></use><g><use xlink:href="#a1V4hPFFym" opacity="1" fill-opacity="0" stroke="#000000" stroke-width="1" stroke-opacity="0"></use></g></g><g><use xlink:href="#e4sBOmRlTf" opacity="1" fill="#ffffff" fill-opacity="1"></use><g><use xlink:href="#e4sBOmRlTf" opacity="1" fill-opacity="0" stroke="#000000" stroke-width="1" stroke-opacity="0"></use></g></g></g></g></svg>