<?xml version="1.0" encoding="UTF-8" standalone="no"?>
<!DOCTYPE svg PUBLIC "-//W3C//DTD SVG 1.1//EN" "http://www.w3.org/Graphics/SVG/1.1/DTD/svg11.dtd">
<svg version="1.1" xmlns="http://www.w3.org/2000/svg" xmlns:xlink="http://www.w3.org/1999/xlink" preserveAspectRatio="xMidYMid meet" viewBox="0 0 640 640" width="640" height="640"><defs><path d="M326.24 0.21L328.78 0.46L331.29 0.82L333.76 1.27L336.2 1.82L338.6 2.46L340.96 3.2L343.28 4.02L345.55 4.93L347.79 5.92L349.97 7L352.1 8.16L354.19 9.39L356.22 10.71L358.2 12.1L360.11 13.56L361.97 15.1L363.77 16.7L365.51 18.37L367.18 20.11L368.78 21.91L370.31 23.77L371.77 25.68L373.16 27.66L374.48 29.69L375.71 31.78L376.87 33.91L377.94 36.1L378.94 38.33L379.84 40.61L380.66 42.93L381.39 45.29L382.03 47.69L382.58 50.13L383.03 52.6L383.38 55.1L383.63 57.64L383.78 60.21L383.83 62.8L383.82 64L383.78 65.2L383.72 66.39L383.64 67.57L383.53 68.75L383.4 69.92L383.24 71.08L383.07 72.24L382.87 73.39L382.65 74.54L382.4 75.67L382.14 76.8L381.86 77.92L381.56 79.03L381.23 80.14L380.89 81.23L380.53 82.32L380.15 83.4L379.75 84.46L379.33 85.52L378.9 86.57L378.45 87.6L377.98 88.63L377.5 89.64L376.99 90.65L376.48 91.64L375.95 92.62L375.4 93.59L374.84 94.55L374.26 95.5L373.68 96.43L373.07 97.35L372.46 98.26L371.83 99.15L371.19 100.03L370.54 100.9L369.87 101.75L369.2 102.59L368.51 103.42L367.81 104.23L373.59 105.82L379.28 107.61L384.9 109.58L390.43 111.72L395.86 114.05L401.21 116.54L406.46 119.21L411.61 122.04L416.66 125.04L421.6 128.19L426.43 131.5L431.14 134.96L435.74 138.57L440.22 142.32L444.58 146.22L448.8 150.25L452.9 154.42L456.86 158.71L460.68 163.14L464.36 167.69L467.89 172.36L471.28 177.14L474.51 182.04L477.59 187.05L480.51 192.17L483.26 197.39L485.85 202.7L488.27 208.11L490.51 213.62L492.58 219.21L494.47 224.89L496.18 230.65L497.69 236.49L499.02 242.4L500.15 248.39L501.08 254.44L501.82 260.56L502.34 266.73L502.66 272.97L502.77 279.25L502.77 299.29L502.82 304.5L502.95 309.73L503.18 314.96L503.49 320.21L503.9 325.46L504.4 330.72L504.98 335.99L505.66 341.26L506.43 346.55L507.28 351.83L508.23 357.13L509.27 362.43L510.4 367.74L511.61 373.05L512.92 378.37L514.32 383.69L515.81 389.01L517.39 394.34L519.06 399.67L520.82 405.01L522.67 410.34L524.61 415.68L526.64 421.02L528.76 426.36L530.97 431.71L533.27 437.05L535.66 442.4L538.14 447.74L540.71 453.08L543.37 458.43L546.12 463.77L548.96 469.11L551.89 474.45L554.91 479.78L558.02 485.12L561.22 490.45L564.52 495.77L567.9 501.09L571.37 506.41L574.93 511.73L575.13 512.03L575.32 512.34L575.51 512.65L575.69 512.97L575.87 513.29L576.04 513.62L576.2 513.95L576.36 514.28L576.52 514.62L576.66 514.97L576.81 515.31L576.94 515.66L577.07 516.02L577.19 516.37L577.3 516.74L577.41 517.1L577.51 517.47L577.61 517.84L577.69 518.21L577.77 518.58L577.84 518.96L577.91 519.34L577.96 519.72L578.01 520.11L578.05 520.5L578.08 520.88L578.11 521.28L578.12 521.67L578.13 522.06L578.13 522.46L578.12 522.85L578.1 523.25L578.07 523.65L578.03 524.05L577.98 524.45L577.93 524.85L577.86 525.25L577.79 525.66L577.7 526.06L577.6 526.46L577.15 531.06L575.81 535.43L573.64 539.58L570.67 543.52L566.96 547.25L562.55 550.78L557.49 554.11L551.81 557.25L545.57 560.2L538.81 562.98L531.58 565.58L523.92 568.01L515.88 570.28L507.5 572.39L498.83 574.35L489.91 576.17L480.79 577.84L471.51 579.38L462.13 580.79L452.68 582.08L443.2 583.25L433.76 584.31L424.38 585.26L415.12 586.11L406.02 586.86L397.13 587.53L388.49 588.11L380.14 588.61L372.14 589.04L364.53 589.41L357.35 589.71L350.65 589.96L344.47 590.15L338.87 590.31L333.87 590.42L329.54 590.5L325.92 590.55L323.04 590.58L320.96 590.59L319.72 590.6L319.38 590.6L318.95 590.6L318.44 590.6L317.85 590.6L317.18 590.59L316.43 590.59L315.61 590.58L314.71 590.58L313.73 590.57L312.69 590.56L311.57 590.54L310.38 590.53L309.12 590.51L307.79 590.48L306.4 590.46L304.95 590.43L303.43 590.39L301.85 590.35L300.21 590.31L298.51 590.26L296.75 590.21L294.94 590.15L293.07 590.09L291.15 590.02L289.18 589.95L287.15 589.86L285.08 589.78L282.95 589.68L280.79 589.58L278.57 589.47L276.31 589.35L274.01 589.23L271.67 589.1L269.29 588.96L266.87 588.81L264.42 588.65L261.92 588.48L259.4 588.31L256.84 588.12L254.25 587.92L253.81 590.12L253.3 592.28L252.71 594.42L252.06 596.53L251.33 598.6L250.54 600.65L249.68 602.66L248.75 604.63L247.76 606.57L246.71 608.47L245.6 610.32L244.42 612.14L243.19 613.91L241.9 615.64L240.55 617.33L239.15 618.96L237.7 620.55L236.2 622.08L234.64 623.57L233.04 625L231.38 626.37L229.69 627.69L227.94 628.95L226.16 630.15L224.33 631.29L222.46 632.37L220.55 633.38L218.6 634.33L216.62 635.21L214.6 636.02L212.55 636.76L210.47 637.43L208.35 638.02L206.21 638.55L204.03 638.99L201.83 639.36L199.61 639.65L197.35 639.86L195.08 639.98L192.79 640.03L190.19 639.97L187.63 639.82L185.09 639.56L182.59 639.2L180.11 638.75L177.68 638.2L175.28 637.56L172.91 636.83L170.59 636.01L168.32 635.1L166.09 634.1L163.9 633.03L161.77 631.87L159.68 630.63L157.65 629.32L155.67 627.93L153.75 626.46L151.89 624.93L150.09 623.32L148.36 621.65L146.69 619.92L145.09 618.12L143.55 616.26L142.09 614.34L140.7 612.36L139.38 610.33L138.14 608.25L136.99 606.11L135.91 603.93L134.91 601.7L134.01 599.42L133.18 597.1L132.45 594.74L131.81 592.34L131.26 589.9L130.81 587.43L130.45 584.92L130.2 582.38L130.04 579.82L129.99 577.23L129.99 571.88L127.1 571.17L124.25 570.43L121.43 569.68L118.66 568.91L115.93 568.11L113.25 567.3L110.61 566.46L108.02 565.61L105.48 564.73L102.99 563.83L100.56 562.91L98.18 561.97L95.86 561.01L93.6 560.03L91.4 559.02L89.26 557.99L87.19 556.94L85.18 555.87L83.25 554.78L81.38 553.66L79.59 552.52L77.87 551.36L76.23 550.18L74.67 548.97L73.18 547.74L71.78 546.48L70.47 545.21L69.24 543.91L68.09 542.58L67.04 541.24L66.08 539.87L65.21 538.47L64.43 537.05L63.76 535.61L63.18 534.14L62.7 532.65L62.33 531.13L62.06 529.59L61.9 528.03L61.84 526.44L61.85 526.04L61.86 525.63L61.88 525.23L61.92 524.83L61.96 524.43L62.01 524.03L62.07 523.64L62.14 523.24L62.22 522.84L62.3 522.45L62.39 522.05L62.49 521.66L62.6 521.27L62.71 520.88L62.83 520.49L62.95 520.1L63.08 519.72L63.22 519.34L63.36 518.96L63.51 518.58L63.66 518.21L63.82 517.83L63.98 517.46L64.15 517.1L64.32 516.73L64.5 516.37L64.67 516.02L64.85 515.66L65.04 515.31L65.23 514.97L65.41 514.62L65.61 514.28L65.8 513.95L65.99 513.62L66.19 513.29L66.39 512.97L66.59 512.65L66.79 512.34L66.99 512.03L67.19 511.73L70.75 506.42L74.23 501.1L77.61 495.79L80.9 490.48L84.1 485.17L87.22 479.86L90.24 474.55L93.17 469.24L96.01 463.93L98.76 458.61L101.42 453.3L103.99 447.99L106.47 442.68L108.87 437.37L111.17 432.06L113.37 426.75L115.49 421.44L117.52 416.13L119.46 410.82L121.31 405.51L123.07 400.2L124.74 394.89L126.32 389.57L127.81 384.26L129.2 378.95L130.51 373.64L131.73 368.33L132.86 363.02L133.89 357.71L134.84 352.4L135.7 347.09L136.46 341.78L137.14 336.47L137.73 331.15L138.22 325.84L138.63 320.53L138.94 315.22L139.17 309.91L139.3 304.6L139.35 299.29L139.35 279.25L139.46 272.97L139.78 266.73L140.3 260.56L141.04 254.44L141.97 248.39L143.1 242.4L144.43 236.49L145.95 230.65L147.65 224.89L149.54 219.21L151.61 213.62L153.86 208.11L156.28 202.7L158.86 197.39L161.62 192.17L164.54 187.05L167.62 182.04L170.85 177.14L174.24 172.36L177.77 167.69L181.45 163.14L185.27 158.71L189.23 154.42L193.33 150.25L197.56 146.22L201.91 142.32L206.39 138.57L210.99 134.96L215.7 131.5L220.53 128.19L225.47 125.04L230.52 122.04L235.67 119.21L240.92 116.54L246.26 114.05L251.7 111.72L257.23 109.58L262.84 107.61L268.53 105.82L274.31 104.23L273.61 103.42L272.93 102.59L272.25 101.75L271.59 100.9L270.94 100.03L270.3 99.15L269.67 98.26L269.06 97.35L268.45 96.43L267.87 95.49L267.29 94.55L266.73 93.59L266.18 92.62L265.65 91.64L265.14 90.64L264.63 89.64L264.15 88.62L263.68 87.59L263.23 86.56L262.8 85.51L262.38 84.45L261.98 83.38L261.6 82.31L261.24 81.22L260.89 80.13L260.57 79.02L260.27 77.91L259.98 76.79L259.72 75.66L259.48 74.53L259.26 73.38L259.06 72.23L258.88 71.08L258.72 69.91L258.59 68.74L258.48 67.56L258.4 66.38L258.34 65.19L258.3 64L258.29 62.8L258.34 60.21L258.49 57.64L258.75 55.1L259.11 52.6L259.56 50.13L260.11 47.69L260.75 45.29L261.48 42.93L262.3 40.61L263.21 38.33L264.21 36.1L265.28 33.91L266.44 31.78L267.68 29.69L269 27.66L270.39 25.68L271.85 23.77L273.38 21.91L274.99 20.11L276.66 18.37L278.39 16.7L280.19 15.1L282.05 13.56L283.97 12.1L285.95 10.71L287.98 9.39L290.06 8.16L292.2 7L294.38 5.92L296.62 4.93L298.89 4.02L301.21 3.2L303.57 2.46L305.97 1.82L308.41 1.27L310.88 0.82L313.39 0.46L315.93 0.21L318.49 0.05L321.08 0L323.68 0.05L326.24 0.21ZM158.22 580.6L158.42 582.26L158.68 583.9L159.02 585.52L159.42 587.1L159.9 588.66L160.44 590.18L161.05 591.67L161.72 593.13L162.45 594.54L163.24 595.93L164.09 597.27L165 598.57L165.96 599.82L166.98 601.03L168.05 602.2L169.16 603.31L170.33 604.38L171.54 605.4L172.8 606.36L174.09 607.26L175.44 608.11L176.82 608.91L178.24 609.64L179.69 610.31L181.18 610.91L182.7 611.45L184.26 611.93L185.84 612.33L187.46 612.67L189.09 612.94L190.76 613.13L192.44 613.24L194.15 613.28L195.63 613.25L197.09 613.16L198.52 613.02L199.94 612.82L201.33 612.57L202.7 612.27L204.04 611.91L205.36 611.51L206.66 611.06L207.93 610.56L209.17 610.01L210.38 609.42L211.57 608.79L212.72 608.11L213.85 607.4L214.94 606.64L216.01 605.85L217.04 605.02L218.04 604.15L219 603.25L219.93 602.32L220.82 601.36L221.68 600.36L222.5 599.34L223.29 598.29L224.03 597.22L224.74 596.11L225.4 594.99L226.03 593.84L226.62 592.67L227.16 591.49L227.66 590.28L228.11 589.05L228.53 587.82L228.89 586.56L226.94 586.33L224.97 586.1L222.99 585.87L221 585.64L219 585.41L216.99 585.18L214.98 584.95L212.95 584.71L210.92 584.48L208.88 584.24L206.84 584L204.79 583.76L202.74 583.51L200.68 583.27L198.62 583.02L196.56 582.77L194.5 582.51L192.44 582.25L190.38 581.99L188.32 581.73L186.26 581.46L184.21 581.19L182.15 580.91L180.11 580.63L178.06 580.34L176.03 580.05L174 579.76L171.97 579.46L169.96 579.15L167.95 578.84L165.95 578.53L163.96 578.2L161.99 577.88L160.02 577.54L158.07 577.2L158.11 578.91L158.22 580.6ZM310.79 124.58L304.58 125.15L298.45 125.95L292.39 126.98L286.42 128.24L280.54 129.72L274.74 131.42L269.05 133.33L263.46 135.45L257.97 137.77L252.6 140.29L247.34 143.01L242.21 145.92L237.19 149.01L232.31 152.28L227.57 155.73L222.96 159.35L218.5 163.14L214.18 167.09L210.02 171.2L206.02 175.46L202.17 179.86L198.5 184.41L195 189.1L191.67 193.93L188.53 198.88L185.57 203.96L182.8 209.16L180.22 214.48L177.85 219.9L175.68 225.43L173.71 231.07L171.97 236.8L170.44 242.62L169.13 248.54L168.05 254.53L167.2 260.61L166.59 266.75L166.22 272.97L166.09 279.25L166.09 299.29L166.05 304.9L165.9 310.53L165.66 316.17L165.33 321.81L164.9 327.46L164.38 333.12L163.76 338.79L163.04 344.46L162.24 350.14L161.33 355.83L160.33 361.51L159.23 367.21L158.04 372.91L156.76 378.61L155.38 384.31L153.9 390.02L152.33 395.73L150.66 401.44L148.9 407.15L147.04 412.86L145.09 418.57L143.04 424.28L140.9 429.99L138.66 435.7L136.33 441.41L133.9 447.11L131.38 452.82L128.76 458.51L126.05 464.21L123.24 469.9L120.34 475.58L117.34 481.26L114.24 486.93L111.05 492.6L107.77 498.26L104.39 503.91L100.92 509.56L97.35 515.19L93.68 520.82L89.92 526.44L90.47 527.46L91.29 528.52L92.41 529.61L93.8 530.73L95.47 531.88L97.43 533.06L99.66 534.25L102.16 535.46L104.95 536.69L108.01 537.92L111.34 539.17L114.94 540.42L118.81 541.66L122.96 542.91L127.37 544.15L132.05 545.38L136.99 546.6L142.2 547.81L147.67 549L153.4 550.16L159.39 551.3L165.64 552.41L172.15 553.49L178.92 554.53L185.94 555.54L193.22 556.51L200.75 557.43L208.53 558.3L216.56 559.12L224.84 559.89L233.37 560.6L242.15 561.25L251.17 561.83L260.44 562.35L269.94 562.79L279.69 563.17L289.68 563.46L299.91 563.68L310.38 563.81L321.08 563.85L331.59 563.81L341.88 563.68L351.93 563.46L361.75 563.17L371.35 562.79L380.71 562.35L389.84 561.83L398.74 561.25L407.39 560.6L415.82 559.89L424 559.12L431.95 558.3L439.65 557.43L447.12 556.51L454.34 555.54L461.32 554.53L468.05 553.49L474.53 552.41L480.77 551.3L486.76 550.16L492.49 549L497.98 547.81L503.21 546.6L508.19 545.38L512.91 544.15L517.38 542.91L521.58 541.66L525.53 540.42L529.22 539.17L532.65 537.92L535.81 536.69L538.71 535.46L541.35 534.25L543.71 533.06L545.81 531.88L547.64 530.73L549.2 529.61L550.49 528.52L551.51 527.46L552.25 526.44L548.49 520.82L544.82 515.2L541.25 509.58L537.77 503.95L534.39 498.32L531.11 492.68L527.92 487.04L524.82 481.39L521.82 475.74L518.92 470.09L516.11 464.43L513.4 458.77L510.78 453.1L508.26 447.43L505.83 441.76L503.49 436.09L501.26 430.41L499.12 424.73L497.07 419.05L495.12 413.36L493.26 407.67L491.5 401.98L489.83 396.29L488.26 390.6L486.79 384.9L485.41 379.2L484.12 373.5L482.93 367.8L481.84 362.09L480.84 356.39L479.93 350.68L479.12 344.98L478.41 339.27L477.79 333.56L477.27 327.85L476.84 322.13L476.5 316.42L476.27 310.71L476.12 305L476.08 299.29L476.08 279.25L475.95 272.97L475.57 266.75L474.95 260.61L474.09 254.53L472.99 248.54L471.66 242.62L470.1 236.8L468.33 231.07L466.34 225.43L464.13 219.9L461.73 214.48L459.12 209.16L456.32 203.96L453.32 198.88L450.15 193.93L446.79 189.1L443.25 184.41L439.55 179.86L435.68 175.46L431.65 171.2L427.46 167.09L423.13 163.14L418.65 159.35L414.03 155.73L409.27 152.28L404.38 149.01L399.37 145.92L394.24 143.01L388.99 140.29L383.63 137.77L378.17 135.45L372.61 133.33L366.95 131.42L361.2 129.72L355.37 128.24L349.45 126.98L343.46 125.95L337.4 125.15L331.28 124.58L325.1 124.26L317.07 124.26L310.79 124.58ZM318.11 25.5L316.64 25.65L315.2 25.85L313.78 26.11L312.37 26.42L310.99 26.79L309.63 27.21L308.3 27.68L306.99 28.2L305.7 28.77L304.45 29.39L303.22 30.05L302.02 30.76L300.85 31.52L299.72 32.31L298.62 33.15L297.55 34.03L296.52 34.95L295.52 35.91L294.57 36.91L293.65 37.94L292.77 39.01L291.93 40.11L291.13 41.24L290.38 42.41L289.67 43.61L289.01 44.83L288.39 46.09L287.82 47.37L287.3 48.68L286.83 50.02L286.41 51.38L286.05 52.76L285.73 54.16L285.47 55.58L285.27 57.03L285.12 58.49L285.03 59.97L285.01 61.46L285.03 62.86L285.1 64.24L285.23 65.6L285.4 66.94L285.62 68.27L285.88 69.58L286.19 70.87L286.54 72.14L286.94 73.38L287.38 74.61L287.87 75.81L288.39 76.99L288.96 78.15L289.57 79.28L290.22 80.39L290.9 81.47L291.63 82.52L292.39 83.55L293.18 84.54L294.02 85.51L294.89 86.45L295.79 87.35L296.73 88.23L297.7 89.07L298.7 89.88L299.73 90.66L300.8 91.4L301.89 92.1L303.01 92.77L304.16 93.4L305.34 94L306.55 94.56L307.78 95.07L309.04 95.55L310.32 95.99L311.63 96.39L312.96 96.74L314.31 97.05L315.68 97.32L317.07 97.54L325.1 97.54L326.49 97.32L327.86 97.05L329.21 96.74L330.54 96.39L331.84 95.99L333.12 95.55L334.38 95.07L335.61 94.56L336.82 94L337.99 93.4L339.15 92.77L340.27 92.1L341.36 91.4L342.43 90.66L343.46 89.88L344.46 89.07L345.43 88.23L346.37 87.35L347.27 86.45L348.14 85.51L348.98 84.54L349.77 83.55L350.54 82.52L351.26 81.47L351.95 80.39L352.6 79.28L353.2 78.15L353.77 76.99L354.3 75.81L354.78 74.61L355.23 73.38L355.62 72.14L355.98 70.87L356.29 69.58L356.55 68.27L356.77 66.94L356.94 65.6L357.07 64.24L357.14 62.86L357.16 61.46L357.13 59.97L357.05 58.48L356.9 57.02L356.7 55.58L356.44 54.15L356.12 52.75L355.76 51.37L355.34 50.01L354.87 48.67L354.35 47.36L353.78 46.08L353.16 44.82L352.5 43.6L351.79 42.4L351.04 41.23L350.24 40.1L349.4 38.99L348.52 37.93L347.6 36.9L346.65 35.9L345.65 34.94L344.62 34.02L343.55 33.14L342.45 32.31L341.32 31.51L340.15 30.76L338.95 30.05L337.72 29.38L336.47 28.77L335.18 28.2L333.87 27.68L332.54 27.21L331.18 26.79L329.8 26.42L328.39 26.11L326.97 25.85L325.52 25.65L324.06 25.5L322.58 25.41L321.08 25.38L319.59 25.41L318.11 25.5Z" id="c2UdV9aRNj"></path><path d="M321.08 157.67C313.06 157.67 307.71 163.02 307.71 171.04C307.71 179.06 313.06 184.41 321.08 184.41C371.85 184.41 414.61 225.84 414.61 277.94C414.61 279.94 414.61 295.97 414.61 297.97C414.61 368.8 433.31 438.26 469.39 507.74C472.06 511.75 476.08 514.43 481.43 514.43C484.1 514.43 485.44 514.43 488.11 513.09C494.8 509.08 497.47 501.05 493.46 494.39C458.72 428.92 441.36 363.45 441.36 296.64C441.36 295.39 441.36 289.15 441.36 277.92C405.72 197.75 365.63 157.67 321.08 157.67Z" id="aS9mD8284"></path></defs><g><g><g><use xlink:href="#c2UdV9aRNj" opacity="1" fill="#ffffff" fill-opacity="1"></use><g><use xlink:href="#c2UdV9aRNj" opacity="1" fill-opacity="0" stroke="#000000" stroke-width="1" stroke-opacity="0"></use></g></g><g><use xlink:href="#aS9mD8284" opacity="1" fill="#ffffff" fill-opacity="1"></use><g><use xlink:href="#aS9mD8284" opacity="1" fill-opacity="0" stroke="#000000" stroke-width="1" stroke-opacity="0"></use></g></g></g></g></svg>